<svg width="24" height="24" fill="none" xmlns="http://www.w3.org/2000/svg"><path d="M16 7a1 1 0 112 0 1 1 0 01-2 0z" fill="#fff"/><path fill-rule="evenodd" clip-rule="evenodd" d="M12 7.25a4.75 4.75 0 100 9.5 4.75 4.75 0 000-9.5zM8.75 12a3.25 3.25 0 116.5 0 3.25 3.25 0 01-6.5 0z" fill="#fff"/><path fill-rule="evenodd" clip-rule="evenodd" d="M17.258 2.833a47.721 47.721 0 00-10.516 0c-2.012.225-3.637 1.81-3.873 3.832a45.921 45.921 0 000 10.67c.236 2.022 1.86 3.607 3.873 3.832a47.77 47.77 0 0010.516 0c2.012-.225 3.637-1.81 3.873-3.832a45.925 45.925 0 000-10.67c-.236-2.022-1.86-3.607-3.873-3.832zm-10.35 1.49a46.22 46.22 0 0110.184 0c1.33.15 2.395 1.199 2.55 2.517a44.421 44.421 0 010 10.32 2.89 2.89 0 01-2.55 2.516 46.216 46.216 0 01-10.184 0 2.89 2.89 0 01-2.55-2.516 44.421 44.421 0 010-10.32 2.89 2.89 0 012.55-2.516z" fill="#fff"/></svg>