<svg width="193" height="52" fill="none" xmlns="http://www.w3.org/2000/svg"><path fill-rule="evenodd" clip-rule="evenodd" d="M28.767 18.599a34.187 34.187 0 00-7.534 0 4.09 4.09 0 00-3.609 3.575 32.93 32.93 0 000 7.652 4.09 4.09 0 003.609 3.575c2.484.278 5.05.278 7.534 0a4.09 4.09 0 003.609-3.575 32.93 32.93 0 000-7.652 4.09 4.09 0 00-3.609-3.575zm-7.187 3.105a31.052 31.052 0 016.84 0c.45.05.802.408.852.834.269 2.3.269 4.624 0 6.924a.966.966 0 01-.852.834 31.052 31.052 0 01-6.84 0 .966.966 0 01-.852-.834 29.805 29.805 0 010-6.924.966.966 0 01.852-.834z" fill="#5091CD"/><path fill-rule="evenodd" clip-rule="evenodd" d="M32.813 7.25a1.563 1.563 0 00-3.126 0v5.258a66.68 66.68 0 00-3.125-.146V9.333a1.563 1.563 0 00-3.125 0v3.029a66.68 66.68 0 00-3.125.146V7.25a1.563 1.563 0 00-3.125 0v5.567c-2.708.493-4.87 2.633-5.337 5.37h-5.6a1.563 1.563 0 000 3.125h5.286a64.459 64.459 0 00-.152 3.125h-3.05a1.563 1.563 0 000 3.125h3.05c.025 1.043.076 2.085.152 3.125H6.25a1.563 1.563 0 000 3.125h5.6c.468 2.738 2.63 4.878 5.338 5.371v5.567a1.563 1.563 0 003.125 0v-5.258a66.68 66.68 0 003.125.146v3.029a1.563 1.563 0 003.125 0v-3.029a66.68 66.68 0 003.125-.146v5.258a1.563 1.563 0 003.125 0v-5.567c2.708-.493 4.87-2.633 5.337-5.37h5.6a1.563 1.563 0 000-3.126h-5.286c.076-1.04.127-2.082.152-3.125h3.05a1.563 1.563 0 000-3.125h-3.05a64.459 64.459 0 00-.152-3.125h5.286a1.563 1.563 0 000-3.125h-5.6c-.468-2.737-2.63-4.877-5.337-5.37V7.25zm-14.827 8.606a63.68 63.68 0 0114.028 0c1.61.18 2.896 1.452 3.082 3.037a61.18 61.18 0 010 14.214c-.186 1.585-1.472 2.857-3.082 3.037a63.68 63.68 0 01-14.028 0c-1.61-.18-2.896-1.452-3.082-3.037a61.18 61.18 0 010-14.214c.186-1.585 1.472-2.857 3.082-3.037z" fill="#5091CD"/><path d="M110.375 20.297c2.302 0 4.078.713 5.328 2.14 1.261 1.428 1.891 3.454 1.891 6.079 0 2.729-.745 4.875-2.235 6.437-1.489 1.552-3.557 2.328-6.203 2.328-1 0-2.166-.146-3.5-.437v7.703h-3V20.578h2.406l.407 2.047c.708-.813 1.453-1.401 2.234-1.766.792-.375 1.682-.562 2.672-.562zm-1.25 14.328c1.708 0 3.036-.536 3.984-1.61.948-1.072 1.422-2.572 1.422-4.5 0-1.77-.38-3.14-1.14-4.109-.761-.968-1.834-1.453-3.219-1.453-1.083 0-2.016.271-2.797.813-.781.541-1.354 1.338-1.719 2.39v8c.875.209 1.516.339 1.922.39.406.053.922.079 1.547.079zm15.5-11.969c1.521-1.593 3.38-2.39 5.578-2.39 1.75 0 3.089.505 4.016 1.515.927 1.01 1.39 2.48 1.39 4.407V37h-3.015V26.406c0-1.218-.25-2.104-.75-2.656s-1.302-.828-2.406-.828a5.95 5.95 0 00-2.75.656 5.427 5.427 0 00-2.063 1.813V37h-3V12.875h3v9.781zm22.437-2.422c2.469 0 4.386.75 5.75 2.25 1.365 1.49 2.047 3.578 2.047 6.266s-.682 4.776-2.047 6.266c-1.364 1.49-3.281 2.234-5.75 2.234-2.479 0-4.401-.745-5.765-2.234-1.365-1.49-2.047-3.578-2.047-6.266s.682-4.776 2.047-6.266c1.364-1.5 3.286-2.25 5.765-2.25zm0 2.657c-1.541 0-2.718.5-3.531 1.5-.802 1-1.203 2.453-1.203 4.359 0 1.896.401 3.344 1.203 4.344.813 1 1.99 1.5 3.531 1.5 1.532 0 2.704-.5 3.516-1.5.813-1 1.219-2.448 1.219-4.344 0-1.896-.406-3.344-1.219-4.344-.812-1.01-1.984-1.515-3.516-1.515zm14.594-.032c.792-.875 1.662-1.526 2.61-1.953.948-.427 2.01-.64 3.187-.64 1.75 0 3.089.505 4.016 1.515.927 1.01 1.39 2.48 1.39 4.407V37h-3.015V26.406c0-1.218-.25-2.104-.75-2.656s-1.302-.828-2.406-.828a5.95 5.95 0 00-2.75.656 5.427 5.427 0 00-2.063 1.813V37h-3V20.547h2.437l.344 2.312zm17.922 6.453c.083 1.709.542 3.016 1.375 3.922.833.907 2.005 1.36 3.516 1.36.833 0 1.635-.089 2.406-.266.781-.177 1.667-.479 2.656-.906l.953 2.234c-1.135.552-2.198.959-3.187 1.219-.99.25-1.985.375-2.985.375-2.479 0-4.401-.745-5.765-2.234-1.365-1.49-2.047-3.578-2.047-6.266s.672-4.77 2.016-6.25c1.343-1.49 3.244-2.234 5.703-2.234 2.302 0 4.015.692 5.14 2.078 1.136 1.385 1.703 3.484 1.703 6.297v.672h-11.484zm8.375-2.515c-.083-1.281-.448-2.245-1.094-2.89-.635-.657-1.515-.985-2.64-.985-2.5 0-3.995 1.291-4.485 3.875h8.219zM77.625 14.469h3v3.078h-3v-3.078zm0 6.078h3V37h-3V20.547z" fill="#fff"/><circle cx="92" cy="26" r="3" fill="#fff"/></svg>